<?xml version="1.0" encoding="UTF-8" standalone="no"?>
<!-- Uploaded to: SVG Repo, www.svgrepo.com, Generator: SVG Repo Mixer Tools -->

<svg
   width="800"
   height="950"
   viewBox="0 0 64 76"
   aria-hidden="true"
   role="img"
   class="iconify iconify--emojione-monotone"
   preserveAspectRatio="xMidYMid"
   version="1.1"
   id="svg3"
   sodipodi:docname="header.svg"
   inkscape:version="1.4 (e7c3feb1, 2024-10-09)"
   xmlns:inkscape="http://www.inkscape.org/namespaces/inkscape"
   xmlns:sodipodi="http://sodipodi.sourceforge.net/DTD/sodipodi-0.dtd"
   xmlns="http://www.w3.org/2000/svg"
   xmlns:svg="http://www.w3.org/2000/svg">
  <path
     style="font-size:10.24px;font-family:Luminari;-inkscape-font-specification:Luminari;text-align:center;text-anchor:middle;stroke-width:0.08"
     d="m 14.1261,70.707469 q 0.06144,0.24576 0.43008,0.3072 0.09216,0.01024 0.09216,0.1024 0,0.0512 -0.0512,0.09216 -0.0512,0.04096 -0.13312,0.04096 -0.1536,0 -0.4096,-0.02048 -0.256,-0.02048 -0.72704,-0.02048 -0.37888,0 -0.6656,0.02048 -0.28672,0.03072 -0.34816,0.04096 -0.0512,0 -0.07168,-0.03072 -0.02048,-0.03072 -0.02048,-0.07168 0,-0.04096 0.01024,-0.08192 0.02048,-0.04096 0.0512,-0.04096 0.07168,-0.01024 0.14336,-0.04096 0.07168,-0.03072 0.13312,-0.08192 0.03072,-0.03072 0.07168,-0.32768 0.0512,-0.29696 0.08192,-0.77824 0.04096,-0.49152 0.06144,-1.1264 0.03072,-0.63488 0.03072,-1.34144 0,-0.59392 0,-1.10592 0,-0.512 -0.0512,-0.82944 -0.09216,-0.67584 -0.43008,-1.03424 -0.33792,-0.36864 -0.78848,-0.36864 -0.39936,0 -0.78848,0.22528 -0.38912,0.21504 -0.69632,0.64512 -0.3071998,0.41984 -0.5017598,1.05472 -0.18432,0.62464 -0.18432,1.4336 0,0.89088 0.19456,1.55648 0.2048,0.65536 0.5324798,1.10592 0.32768,0.44032 0.74752,0.6656 0.43008,0.21504 0.89088,0.21504 0.02048,0 0.0512,0 0.04096,0 0.06144,-0.01024 0.04096,-0.02048 0.0512,0 0.01024,0.02048 0,0.06144 -0.01024,0.03072 -0.03072,0.07168 -0.01024,0.03072 -0.03072,0.04096 -0.1024,0.07168 -0.28672,0.13312 -0.18432,0.0512 -0.512,0.0512 -0.54272,0 -1.0854398,-0.24576 -0.53248,-0.256 -0.96256,-0.70656 -0.4198399,-0.45056 -0.6860799,-1.08544 -0.256,-0.64512 -0.256,-1.41312 0,-1.09568 0.31744,-1.87392 0.3174399,-0.77824 0.8601599,-1.26976 0.55296,-0.49152 1.2697598,-0.7168 0.72704,-0.23552 1.54624,-0.23552 0.29696,0 0.54272,0.06144 0.24576,0.06144 0.43008,0.1536 0.18432,0.08192 0.29696,0.16384 0.12288,0.08192 0.16384,0.12288 0.08192,-0.06144 0.32768,-0.14336 0.256,-0.09216 0.57344,-0.16384 0.32768,-0.08192 0.67584,-0.13312 0.34816,-0.06144 0.63488,-0.06144 0.77824,0.02048 1.36192,0.256 0.59392,0.23552 0.98304,0.63488 0.39936,0.38912 0.59392,0.91136 0.2048,0.512 0.2048,1.09568 0,1.09568 -0.29696,1.95584 -0.28672,0.84992 -0.77824,1.44384 -0.49152,0.59392 -1.13664,0.91136 -0.64512,0.3072 -1.35168,0.3072 -0.06144,0 -0.08192,-0.04096 -0.02048,-0.0512 -0.02048,-0.1024 0.01024,-0.0512 0.04096,-0.08192 0.03072,-0.04096 0.06144,-0.03072 0.0512,0.02048 0.08192,0.02048 0.03072,0 0.08192,0 0.41984,0 0.78848,-0.28672 0.36864,-0.28672 0.64512,-0.78848 0.27648,-0.512 0.43008,-1.19808 0.16384,-0.69632 0.16384,-1.51552 0,-1.52576 -0.47104,-2.37568 -0.4608,-0.84992 -1.4336,-0.84992 -0.29696,0 -0.55296,0.12288 -0.256,0.12288 -0.45056,0.32768 -0.18432,0.19456 -0.3072,0.45056 -0.11264,0.256 -0.14336,0.52224 -0.0512,0.3584 -0.06144,1.14688 -0.01024,0.78848 -0.02048,1.90464 -0.01024,0.8192 0.01024,1.4336 0.03072,0.60416 0.1024,0.8192 z m 9.983998,-0.69632 q -0.11264,0.12288 -0.34816,0.33792 -0.23552,0.21504 -0.57344,0.43008 -0.32768,0.21504 -0.73728,0.36864 -0.4096,0.1536 -0.8704,0.1536 -0.41984,0 -0.8192,-0.12288 -0.39936,-0.13312 -0.7168,-0.38912 -0.31744,-0.26624 -0.512,-0.6656 -0.18432,-0.4096 -0.18432,-0.9728 0,-0.4608 0.06144,-0.78848 0.06144,-0.33792 0.16384,-0.58368 0.1024,-0.256 0.22528,-0.43008 0.13312,-0.18432 0.26624,-0.32768 0.16384,-0.18432 0.39936,-0.34816 0.23552,-0.16384 0.50176,-0.29696 0.27648,-0.13312 0.57344,-0.2048 0.3072,-0.08192 0.6144,-0.08192 0.55296,0 0.86016,0.18432 0.31744,0.18432 0.31744,0.512 0,0.2048 -0.12288,0.37888 0.1024,-0.03072 0.256,-0.1024 0.16384,-0.07168 0.32768,-0.14336 0.16384,-0.08192 0.28672,-0.14336 0.13312,-0.06144 0.17408,-0.09216 0.02048,-0.02048 0.04096,-0.01024 0.03072,0 0.03072,0.03072 0,0.13312 -0.0512,0.22528 -0.0512,0.08192 -0.12288,0.13312 -0.16384,0.1024 -0.47104,0.256 -0.3072,0.1536 -0.68608,0.32768 -0.36864,0.16384 -0.768,0.33792 -0.39936,0.16384 -0.75776,0.31744 -0.34816,0.1536 -0.6144,0.27648 -0.256,0.11264 -0.34816,0.16384 0,0.34816 0.13312,0.65536 0.14336,0.29696 0.38912,0.52224 0.24576,0.22528 0.58368,0.3584 0.34816,0.12288 0.75776,0.12288 0.36864,0 0.6656,-0.07168 0.29696,-0.08192 0.50176,-0.17408 0.2048,-0.1024 0.31744,-0.17408 0.12288,-0.08192 0.13312,-0.08192 0.04096,0 0.08192,0.04096 0.04096,0.03072 0.04096,0.07168 z m -3.60448,-1.56672 q 0.17408,-0.06144 0.38912,-0.14336 0.22528,-0.09216 0.43008,-0.19456 0.21504,-0.1024 0.38912,-0.19456 0.17408,-0.09216 0.26624,-0.16384 0.18432,-0.13312 0.18432,-0.45056 0,-0.12288 -0.0512,-0.256 -0.04096,-0.13312 -0.13312,-0.23552 -0.09216,-0.11264 -0.22528,-0.17408 -0.13312,-0.07168 -0.29696,-0.07168 -0.14336,0 -0.3072,0.1024 -0.16384,0.09216 -0.3072,0.31744 -0.14336,0.21504 -0.24576,0.58368 -0.09216,0.3584 -0.09216,0.88064 z m 10.147844,-1.72032 q -0.2048,0.1536 -0.686079,0.27648 -0.47104,0.11264 -1.09568,0.11264 -0.12288,0 -0.27648,0.01024 -0.14336,0 -0.22528,0 0.04096,0.38912 -0.1024,0.79872 -0.13312,0.4096 -0.31744,0.77824 -0.17408,0.3584 -0.32768,0.63488 -0.1536,0.27648 -0.1536,0.39936 0,0.16384 0.14336,0.31744 0.14336,0.1536 0.3584,0.3072 0.21504,0.1536 0.4608,0.31744 0.24576,0.1536 0.4608,0.33792 0.21504,0.17408 0.3584,0.38912 0.14336,0.21504 0.14336,0.47104 0,0.368639 -0.28672,0.808959 -0.27648,0.44032 -0.75776,0.8192 -0.48128,0.38912 -1.1264,0.64512 -0.64512,0.256 -1.37216,0.256 -0.33792,0 -0.73728,-0.07168 -0.38912,-0.07168 -0.72704,-0.21504 -0.32768,-0.14336 -0.55296,-0.3584 -0.21504,-0.2048 -0.21504,-0.49152 0,-0.16384 0.24576,-0.43008 0.256,-0.26624 0.58368,-0.54272 0.32768,-0.27648 0.64512,-0.532479 0.31744,-0.256 0.45056,-0.4096 0.03072,0 0.07168,0.04096 0.0512,0.04096 0.0512,0.09216 0,0.01024 -0.01024,0.01024 0,0.01024 0,0.02048 -0.1024,0.08192 -0.256,0.2048 -0.14336,0.12288 -0.28672,0.266239 -0.14336,0.14336 -0.24576,0.3072 -0.1024,0.17408 -0.1024,0.33792 0,0.21504 0.16384,0.41984 0.17408,0.21504 0.44032,0.37888 0.27648,0.16384 0.62464,0.26624 0.34816,0.1024 0.70656,0.1024 0.73728,0 1.11616,-0.32768 0.38912,-0.31744 0.38912,-0.90112 0,-0.24576 -0.14336,-0.47104 -0.13312,-0.225279 -0.33792,-0.419839 -0.19456,-0.19456 -0.44032,-0.36864 -0.23552,-0.16384 -0.44032,-0.3072 -0.19456,-0.14336 -0.33792,-0.26624 -0.13312,-0.12288 -0.13312,-0.22528 0,-0.09216 0.0512,-0.2048 0.06144,-0.12288 0.13312,-0.23552 0.07168,-0.12288 0.12288,-0.21504 0.06144,-0.1024 0.06144,-0.1536 0,0.01024 -0.02048,-0.03072 -0.07168,0.07168 -0.2048,0.14336 -0.13312,0.07168 -0.31744,0.13312 -0.17408,0.06144 -0.37888,0.1024 -0.19456,0.04096 -0.39936,0.04096 -0.38912,0 -0.68608,-0.12288 -0.29696,-0.13312 -0.50176,-0.34816 -0.19456,-0.21504 -0.29696,-0.49152 -0.1024,-0.28672 -0.1024,-0.60416 0,-0.47104 0.13312,-0.80896 0.14336,-0.33792 0.34816,-0.57344 0.21504,-0.23552 0.45056,-0.37888 0.23552,-0.1536 0.43008,-0.256 0.12288,-0.06144 0.28672,-0.11264 0.17408,-0.06144 0.36864,-0.1024 0.19456,-0.0512 0.39936,-0.08192 0.2048,-0.03072 0.38912,-0.03072 0.64512,0 1.04448,0.14336 0.39936,0.14336 0.52224,0.256 0.12288,0.02048 0.44032,0.03072 0.31744,0.01024 0.67584,0.01024 0.3584,0 0.67584,0 0.327679,0 0.460799,0 0.0512,0 0.1024,0 0.0512,0 0.1024,-0.01024 0.0512,0.01024 0.04096,0.0512 -0.01024,0.04096 -0.0512,0.06144 z m -4.218879,2.7648 q 0.14336,0 0.28672,-0.06144 0.14336,-0.06144 0.256,-0.2048 0.12288,-0.1536 0.19456,-0.39936 0.08192,-0.256 0.08192,-0.63488 0,-0.34816 -0.08192,-0.64512 -0.07168,-0.29696 -0.22528,-0.512 -0.1536,-0.21504 -0.37888,-0.32768 -0.22528,-0.12288 -0.53248,-0.12288 -0.44032,0 -0.74752,0.33792 -0.3072,0.32768 -0.3072,0.94208 0,0.33792 0.12288,0.63488 0.12288,0.29696 0.31744,0.52224 0.2048,0.21504 0.47104,0.34816 0.26624,0.12288 0.54272,0.12288 z m 6.563837,0.12288 q -0.03072,-0.17408 -0.06144,-0.37888 -0.03072,-0.2048 -0.06144,-0.38912 -0.03072,-0.18432 -0.06144,-0.31744 -0.02048,-0.13312 -0.03072,-0.17408 -0.16384,0.06144 -0.36864,0.14336 -0.2048,0.08192 -0.4096,0.18432 -0.2048,0.09216 -0.38912,0.19456 -0.18432,0.09216 -0.3072,0.17408 -0.23552,0.1536 -0.3584,0.3072 -0.12288,0.1536 -0.12288,0.36864 0,0.29696 0.17408,0.52224 0.17408,0.22528 0.54272,0.22528 0.19456,0 0.39936,-0.07168 0.21504,-0.07168 0.38912,-0.16384 0.18432,-0.09216 0.31744,-0.18432 0.13312,-0.09216 0.18432,-0.14336 0.08192,-0.08192 0.12288,-0.13312 0.0512,-0.06144 0.04096,-0.16384 z m -0.29696,-1.5872 q -0.06144,-0.31744 -0.14336,-0.5632 -0.08192,-0.256 -0.2048,-0.41984 -0.12288,-0.17408 -0.29696,-0.256 -0.17408,-0.09216 -0.43008,-0.09216 -0.22528,0 -0.41984,0.08192 -0.18432,0.08192 -0.32768,0.19456 -0.13312,0.11264 -0.21504,0.22528 -0.07168,0.11264 -0.08192,0.17408 -0.01024,0.08192 -0.09216,0.08192 -0.14336,0 -0.26624,-0.1024 -0.12288,-0.1024 -0.12288,-0.24576 0,-0.08192 0.02048,-0.12288 0.23552,-0.13312 0.57344,-0.28672 0.33792,-0.1536 0.69632,-0.28672 0.36864,-0.13312 0.72704,-0.21504 0.3584,-0.09216 0.64512,-0.09216 0.43008,0 0.65536,0.12288 0.23552,0.12288 0.34816,0.34816 0.11264,0.22528 0.13312,0.53248 0.03072,0.29696 0.0512,0.64512 0.03072,0.52224 0.08192,1.01376 0.0512,0.48128 0.1536,0.86016 0.1024,0.36864 0.256,0.60416 0.16384,0.22528 0.39936,0.22528 0.11264,0 0.24576,-0.04096 0.13312,-0.04096 0.256,-0.09216 0.12288,-0.06144 0.21504,-0.11264 0.1024,-0.06144 0.13312,-0.08192 0.09216,0 0.11264,0.09216 0,0.0512 -0.02048,0.09216 -0.02048,0.02048 -0.1536,0.1024 -0.13312,0.08192 -0.32768,0.19456 -0.19456,0.11264 -0.43008,0.24576 -0.23552,0.12288 -0.47104,0.23552 -0.22528,0.11264 -0.41984,0.18432 -0.19456,0.07168 -0.3072,0.07168 -0.13312,0 -0.23552,-0.11264 -0.09216,-0.1024 -0.16384,-0.27648 -0.07168,-0.18432 -0.12288,-0.41984 -0.0512,-0.23552 -0.09216,-0.49152 -0.18432,0.1536 -0.47104,0.36864 -0.28672,0.2048 -0.62464,0.38912 -0.33792,0.18432 -0.69632,0.31744 -0.34816,0.12288 -0.67584,0.12288 -0.27648,0 -0.48128,-0.08192 -0.2048,-0.09216 -0.34816,-0.23552 -0.13312,-0.14336 -0.2048,-0.32768 -0.06144,-0.19456 -0.06144,-0.39936 0,-0.32768 0.19456,-0.53248 0.2048,-0.21504 0.62464,-0.44032 0.19456,-0.1024 0.54272,-0.26624 0.34816,-0.17408 0.70656,-0.34816 0.36864,-0.17408 0.67584,-0.32768 0.31744,-0.16384 0.4608,-0.256 z m 11.540465,2.68288 q -0.11264,0.14336 -0.24576,0.36864 -0.13312,0.21504 -0.256,0.43008 -0.12288,0.21504 -0.22528,0.38912 -0.09216,0.174079 -0.13312,0.225279 -0.03072,0.04096 -0.08192,0.04096 -0.04096,0.01024 -0.09216,-0.01024 -0.04096,-0.01024 -0.07168,-0.04096 -0.03072,-0.03072 -0.02048,-0.07168 0.04096,-0.0512 0.06144,-0.09216 0.02048,-0.03072 0.02048,-0.08192 0,-0.1024 -0.34816,-0.19456 -0.34816,-0.08192 -0.88064,-0.16384 -0.52224,-0.07168 -1.13664,-0.13312 -0.6144,-0.0512 -1.13664,-0.09216 -0.52224,-0.03072 -0.8704,-0.06144 -0.34816,-0.02048 -0.34816,-0.02048 -0.31744,0 -0.59392,0.02048 -0.27648,0.03072 -0.54272,0.09216 -0.08192,-0.04096 -0.11264,-0.08192 -0.03072,-0.03072 -0.04096,-0.06144 -0.01024,-0.03072 0,-0.06144 0,-0.03072 -0.01024,-0.07168 0.23552,-0.08192 0.39936,-0.1536 0.16384,-0.08192 0.3584,-0.256 0.28672,-0.22528 0.55296,-0.58368 0.26624,-0.36864 0.53248,-0.80896 0.27648,-0.45056 0.55296,-0.93184 0.27648,-0.49152 0.58368,-0.95232 0.17408,-0.256 0.39936,-0.60416 0.23552,-0.34816 0.49152,-0.70656 0.26624,-0.36864 0.54272,-0.7168 0.27648,-0.34816 0.54272,-0.6144 -0.06144,-0.0512 -0.23552,-0.06144 -0.17408,-0.02048 -0.52224,-0.02048 -0.256,0 -0.6656,0.03072 -0.39936,0.03072 -0.8192,0.07168 -0.41984,0.04096 -0.77824,0.09216 -0.34816,0.0512 -0.49152,0.08192 -0.19456,0.0512 -0.3072,0.11264 -0.11264,0.06144 -0.19456,0.12288 -0.07168,0.0512 -0.13312,0.09216 -0.0512,0.04096 -0.12288,0.04096 -0.13312,0 -0.14336,-0.07168 0,-0.06144 0.03072,-0.09216 0.04096,-0.04096 0.09216,-0.08192 0.1536,-0.14336 0.27648,-0.43008 0.13312,-0.28672 0.24576,-0.5632 0.11264,-0.28672 0.19456,-0.50176 0.08192,-0.21504 0.14336,-0.21504 0.07168,0 0.1024,0.04096 0.03072,0.04096 0.03072,0.07168 0,0.0512 -0.03072,0.12288 -0.02048,0.07168 -0.02048,0.16384 0,0.0512 0.2048,0.1024 0.2048,0.0512 0.55296,0.1024 0.34816,0.04096 0.8192,0.07168 0.47104,0.03072 0.99328,0.03072 0.37888,0 0.72704,-0.03072 0.3584,-0.03072 0.67584,-0.06144 0.31744,-0.03072 0.57344,-0.06144 0.26624,-0.03072 0.45056,-0.03072 0.08192,0 0.1024,0.09216 0.03072,0.08192 0.03072,0.14336 0,0.0512 -0.03072,0.07168 -0.03072,0.02048 -0.07168,0.03072 -0.04096,0.01024 -0.09216,0.03072 -0.04096,0.01024 -0.07168,0.0512 -0.14336,0.16384 -0.34816,0.45056 -0.19456,0.27648 -0.44032,0.65536 -0.23552,0.36864 -0.50176,0.8192 -0.256,0.45056 -0.53248,0.94208 -0.43008,0.768 -0.80896,1.35168 -0.37888,0.57344 -0.7168,0.99328 -0.33792,0.41984 -0.62464,0.69632 -0.28672,0.27648 -0.52224,0.45056 0.07168,0.02048 0.29696,0.06144 0.23552,0.04096 0.5632,0.08192 0.33792,0.04096 0.74752,0.07168 0.4096,0.03072 0.84992,0.03072 0.60416,0 1.06496,-0.06144 0.47104,-0.06144 0.78848,-0.14336 0.32768,-0.08192 0.512,-0.16384 0.18432,-0.09216 0.24576,-0.14336 0.07168,-0.06144 0.13312,-0.02048 0.07168,0.03072 0.09216,0.12288 z m 4.567045,-0.31744 q -0.11264,0.09216 -0.3072,0.24576 -0.19456,0.1536 -0.45056,0.3072 -0.256,0.1536 -0.5632,0.26624 -0.3072,0.1024 -0.64512,0.1024 -0.512,0 -0.91136,-0.17408 -0.39936,-0.18432 -0.67584,-0.48128 -0.26624,-0.3072 -0.4096,-0.7168 -0.13312,-0.4096 -0.13312,-0.8704 0,-0.54272 0.16384,-0.96256 0.16384,-0.41984 0.39936,-0.72704 0.24576,-0.31744 0.52224,-0.52224 0.27648,-0.21504 0.50176,-0.33792 0.1024,-0.06144 0.256,-0.13312 0.16384,-0.07168 0.34816,-0.13312 0.19456,-0.06144 0.4096,-0.1024 0.22528,-0.0512 0.4608,-0.0512 0.44032,0 0.84992,0.11264 0.41984,0.11264 0.73728,0.3584 0.31744,0.23552 0.512,0.6144 0.19456,0.37888 0.19456,0.91136 0,0.43008 -0.16384,0.80896 -0.1536,0.37888 -0.36864,0.67584 -0.21504,0.29696 -0.43008,0.512 -0.2048,0.2048 -0.29696,0.29696 z m -1.15712,0.16384 q 0.58368,0 0.89088,-0.44032 0.31744,-0.44032 0.31744,-1.35168 0,-0.4608 -0.13312,-0.84992 -0.12288,-0.39936 -0.3584,-0.69632 -0.22528,-0.29696 -0.53248,-0.4608 -0.3072,-0.17408 -0.6656,-0.17408 -0.256,0 -0.49152,0.13312 -0.22528,0.13312 -0.39936,0.38912 -0.17408,0.24576 -0.27648,0.60416 -0.1024,0.3584 -0.1024,0.80896 0,0.48128 0.14336,0.86016 0.1536,0.37888 0.39936,0.64512 0.24576,0.256 0.55296,0.39936 0.31744,0.13312 0.65536,0.13312 z m 7.045128,-0.16384 q -0.11264,0.09216 -0.3072,0.24576 -0.19456,0.1536 -0.45056,0.3072 -0.256,0.1536 -0.5632,0.26624 -0.3072,0.1024 -0.64512,0.1024 -0.512,0 -0.91136,-0.17408 -0.39936,-0.18432 -0.67584,-0.48128 -0.26624,-0.3072 -0.4096,-0.7168 -0.13312,-0.4096 -0.13312,-0.8704 0,-0.54272 0.16384,-0.96256 0.16384,-0.41984 0.39936,-0.72704 0.24576,-0.31744 0.52224,-0.52224 0.27648,-0.21504 0.50176,-0.33792 0.1024,-0.06144 0.256,-0.13312 0.16384,-0.07168 0.34816,-0.13312 0.19456,-0.06144 0.4096,-0.1024 0.22528,-0.0512 0.4608,-0.0512 0.44032,0 0.84992,0.11264 0.41984,0.11264 0.73728,0.3584 0.31744,0.23552 0.512,0.6144 0.19456,0.37888 0.19456,0.91136 0,0.43008 -0.16384,0.80896 -0.1536,0.37888 -0.36864,0.67584 -0.21504,0.29696 -0.43008,0.512 -0.2048,0.2048 -0.29696,0.29696 z m -1.15712,0.16384 q 0.58368,0 0.89088,-0.44032 0.31744,-0.44032 0.31744,-1.35168 0,-0.4608 -0.13312,-0.84992 -0.12288,-0.39936 -0.3584,-0.69632 -0.22528,-0.29696 -0.53248,-0.4608 -0.3072,-0.17408 -0.6656,-0.17408 -0.256,0 -0.49152,0.13312 -0.22528,0.13312 -0.39936,0.38912 -0.17408,0.24576 -0.27648,0.60416 -0.1024,0.3584 -0.1024,0.80896 0,0.48128 0.14336,0.86016 0.1536,0.37888 0.39936,0.64512 0.24576,0.256 0.55296,0.39936 0.31744,0.13312 0.65536,0.13312 z"
     id="text1"
     aria-label="Mega Zoo" />
  <defs
     id="defs3" />
  <sodipodi:namedview
     id="namedview3"
     pagecolor="#ffffff"
     bordercolor="#000000"
     borderopacity="0.25"
     inkscape:showpageshadow="2"
     inkscape:pageopacity="0.0"
     inkscape:pagecheckerboard="0"
     inkscape:deskcolor="#d1d1d1"
     inkscape:zoom="0.785"
     inkscape:cx="255.41401"
     inkscape:cy="737.57962"
     inkscape:window-width="1440"
     inkscape:window-height="847"
     inkscape:window-x="0"
     inkscape:window-y="25"
     inkscape:window-maximized="1"
     inkscape:current-layer="svg3" />
  <path
     d="M 56,13.728 C 56,7.261 50.645,2 44.062,2 c -5.25,0 -9.836,6.454 -11.376,11.242 -0.456436,-0.03211 -0.914564,-0.03211 -1.371,0 C 29.773,8.454 25.188,2 19.938,2 13.355,2 8,7.261 8,13.728 c 0,5.521 3.919,10.175 9.169,11.407 -0.540264,1.489481 -0.889058,3.04158 -1.038,4.619 -0.233,2.35 0.694,4.793 2.609,6.878 1.374,1.496 3.117,2.662 4.815,3.306 -0.7704,1.134505 -1.397811,2.359769 -1.868,3.648 -6.78,3.612 -9.44,11.831 -1.105,15.758 C 27.707,62.686 37.195,60.978 44.89,62 38.1,60.434 30.447,60.771 23.923,58.369 19.86,56.887 17.118,52.886 20.578,49.272 c -0.04155,0.63115 -0.06256,1.263484 -0.063,1.896 0,1.756 0.857,3.218 2.489,4.264 v 0.049 c 0,1.627 1.387,2.951 3.092,2.951 h 1.475 c 0.964,0 1.864,-0.434 2.442,-1.145 1.323,0.086 2.652,0.086 3.976,0 0.600731,0.727929 1.496205,1.148141 2.44,1.145 h 1.476 c 1.705,0 3.092,-1.324 3.092,-2.992 v -0.008 c 1.632,-1.046 2.489,-2.509 2.489,-4.264 0,-5.523 -1.38,-8.752 -3.04,-11.231 1.696,-0.643 3.438,-1.808 4.812,-3.304 1.916,-2.085 2.844,-4.527 2.611,-6.878 -0.149112,-1.577623 -0.497554,-3.12999 -1.037,-4.62 C 52.081,23.903 56,19.249 56,13.728 m -37.387,8.168 c -3.773,-0.218 -6.774,-3.272 -6.774,-6.994 0,-3.863 3.233,-7.006 7.208,-7.006 3.089,0 5.795,4.954 6.792,7.717 -2.635,2.012 -5.059,2.1 -7.226,6.283 m 22.952,29.272 c 0,1.244 -0.673,2.203 -2.058,2.93 l -0.678,0.356 0.203,0.731 c 0.029,0.104 0.043,0.186 0.043,0.295 0,0.582 -0.525,1.055 -1.172,1.055 h -1.476 c -0.467,0 -0.888,-0.252 -1.075,-0.641 l -0.285,-0.598 -0.665,0.057 c -1.599405,0.137002 -3.207595,0.137002 -4.807,0 l -0.667,-0.057 -0.285,0.598 c -0.187,0.389 -0.608,0.641 -1.075,0.641 h -1.475 c -0.646,0 -1.172,-0.473 -1.172,-1.096 0,-0.068 0.014,-0.149 0.042,-0.254 l 0.203,-0.731 -0.678,-0.356 c -1.384,-0.727 -2.057,-1.686 -2.057,-2.93 0,-5.189 1.226,-8.114 3.101,-10.733 0.182,0.021 0.366,0.05 0.542,0.054 0.2,0.102 0.597,0.412 0.894,0.644 1.088,0.85 2.731,2.133 5.029,2.133 2.295,0 3.938,-1.282 5.026,-2.132 0.297,-0.232 0.694,-0.543 0.895,-0.645 0.176,-0.004 0.359,-0.033 0.541,-0.054 1.879,2.618 3.106,5.544 3.106,10.733 M 37.789,38.594 c -1.449,0 -2.988,2.775 -5.788,2.775 -2.803,0 -4.34,-2.775 -5.791,-2.775 -3.033,0 -8.628,-4.002 -8.168,-8.654 0.265,-2.666 1.208,-5.213 2.04,-7.054 0.063,-0.033 0.044,-0.035 0.016,-0.03 1.353,-2.759 5.021,-5.315 8.478,-6.86 0.647,-0.289 2.541,-0.882 3.425,-0.882 0.884,0 2.777,0.593 3.423,0.881 3.47,1.55 7.155,4.138 8.495,6.891 -0.096,0 -0.045,0.003 0.002,0.005 0.828,1.841 1.771,4.386 2.036,7.049 0.46,4.652 -5.136,8.654 -8.168,8.654 m 7.599,-16.698 c -2.189,-4.24 -4.568,-4.269 -7.227,-6.285 0.999,-2.762 3.703,-7.715 6.791,-7.715 3.975,0 7.209,3.143 7.209,7.006 0,3.723 -3,6.776 -6.773,6.994"
     fill="#000000"
     id="path1"
     sodipodi:nodetypes="csccsscccccccccccssscccsscsccccccssccccccsssccccccssscccscccscccccssccccscccccccssc" />
  <path
     d="m 32.001,31.789 c -0.51,0 -2.214,0.045 -2.77,0.623 -0.395,0.411 -0.089,1.434 0.962,2.313 0.665,0.557 1.298,0.731 1.807,0.731 0.509,0 1.143,-0.175 1.807,-0.731 1.052,-0.88 1.356,-1.902 0.963,-2.313 -0.555,-0.578 -2.26,-0.623 -2.769,-0.623"
     fill="#000000"
     id="path2" />
  <path
     d="m 28.813603,36.609752 c -0.395,0.411 0.231,1.114 1.282,1.993 0.665,0.557 1.298,0.731 1.807,0.731 0.509,0 1.143,-0.175 1.807,-0.731 1.052,-0.88 1.676,-1.582 1.283,-1.993 -0.555,-0.578 -1.338333,2.111738 -3.089,2.097 -1.750667,-0.01474 -2.534,-2.675 -3.09,-2.097 z"
     fill="#000000"
     id="path2-7"
     sodipodi:nodetypes="ccscczc" />
  <ellipse
     cx="25.429001"
     cy="27.333"
     rx="2.8800001"
     ry="2.8440001"
     fill="#000000"
     id="ellipse2" />
  <ellipse
     cx="38.57"
     cy="27.333"
     rx="2.8789999"
     ry="2.8440001"
     fill="#000000"
     id="ellipse3" />
</svg>
