<?xml version="1.0" encoding="UTF-8" standalone="no"?>
<!-- Uploaded to: SVG Repo, www.svgrepo.com, Generator: SVG Repo Mixer Tools -->

<svg
   fill="#000000"
   height="600"
   width="800"
   version="1.1"
   id="Layer_1"
   viewBox="0 0 463 347.25"
   xml:space="preserve"
   sodipodi:docname="header.svg"
   inkscape:version="1.4 (e7c3feb1, 2024-10-09)"
   xmlns:inkscape="http://www.inkscape.org/namespaces/inkscape"
   xmlns:sodipodi="http://sodipodi.sourceforge.net/DTD/sodipodi-0.dtd"
   xmlns="http://www.w3.org/2000/svg"
   xmlns:svg="http://www.w3.org/2000/svg"><defs
   id="defs6" /><sodipodi:namedview
   id="namedview6"
   pagecolor="#ffffff"
   bordercolor="#000000"
   borderopacity="0.25"
   inkscape:showpageshadow="2"
   inkscape:pageopacity="0.0"
   inkscape:pagecheckerboard="0"
   inkscape:deskcolor="#d1d1d1"
   inkscape:zoom="0.7403305"
   inkscape:cx="276.22798"
   inkscape:cy="499.77679"
   inkscape:window-width="1440"
   inkscape:window-height="847"
   inkscape:window-x="0"
   inkscape:window-y="25"
   inkscape:window-maximized="1"
   inkscape:current-layer="g6" />
<g
   id="g6"
   transform="translate(0,-170.69377)"><path
   style="font-size:74.08px;font-family:Krungthep;-inkscape-font-specification:Krungthep;text-align:center;text-anchor:middle;stroke-width:0.57875"
   d="m 46.517035,490.77148 v -55.56 H 77.36441 v 6.19263 h -18.52 v 18.52 h 12.38525 v 6.13475 H 58.84441 v 24.71262 z m 67.945225,-24.71262 v -6.13475 q 0,-2.5465 -1.852,-4.36956 -1.82306,-1.82307 -4.34063,-1.82307 h -6.19262 q -5.46919,0 -6.134753,6.19263 h -6.192625 q 1.417938,-12.38525 12.327378,-12.38525 h 12.38525 q 5.06406,0 8.68125,3.67506 3.64612,3.64613 3.64612,8.71019 v 30.84737 h -12.32737 v -6.19262 q -0.72344,6.19262 -6.19263,6.19262 h -6.19262 q -5.064065,0 -8.71019,-3.61718 -3.617188,-3.64613 -3.617188,-8.71019 v -0.0579 q 0,-5.06406 3.646125,-8.68125 3.646125,-3.64612 8.681253,-3.64612 z m 0,6.19262 h -6.19263 q -2.5465,0 -4.36956,1.82307 -1.82306,1.79412 -1.82306,4.31168 v 0.0579 q 0,2.48862 1.79412,4.31169 1.82306,1.82306 4.3985,1.82306 2.57544,0 4.36957,-1.82306 1.82306,-1.82307 1.82306,-4.31169 z m 55.50216,-12.32737 h -6.13475 q -0.81025,-6.19263 -5.84538,-6.19263 -3.26994,0 -4.91937,1.30219 -1.64944,1.27325 -1.64944,3.81975 0,2.66225 8.99956,7.46588 7.32119,3.9355 8.42081,6.53987 1.12857,2.57544 1.12857,5.49813 0,5.15087 -3.64613,8.797 -3.61719,3.61718 -8.68125,3.61718 h -6.19262 q -12.32738,0 -12.32738,-12.32737 h 6.19263 q 0.72343,6.16369 5.7875,6.16369 3.26993,0 4.91937,-1.30219 1.64944,-1.30219 1.64944,-3.84869 0,-2.60437 -8.97063,-7.46587 -7.35012,-3.90657 -8.47868,-6.51094 -1.09963,-2.60438 -1.09963,-5.49813 0,-5.17981 3.64613,-8.797 3.64612,-3.64612 8.68125,-3.64612 h 6.19262 q 11.575,0 12.32738,12.38525 z m 18.57784,-24.71263 h 12.32737 v 12.32738 h 6.19263 v 6.19262 h -6.19263 v 24.71263 q 0,2.98056 1.96775,4.57212 1.96775,1.56263 3.64613,1.56263 h 0.57875 v 6.19262 h -6.19263 q -5.093,0 -8.71019,-3.61718 -3.61718,-3.64613 -3.61718,-8.71019 v -24.71263 h -6.19263 v -6.19262 h 6.19263 z m 48.93332,55.56 v -55.56 h 30.84737 v 6.19263 h -18.52 v 18.52 h 12.38525 v 6.13475 h -12.38525 v 24.71262 z m 55.55996,-43.23262 h 12.38525 q 5.06406,0 8.68125,3.67506 3.64613,3.64613 3.64613,8.71019 v 18.52 q 0,5.00619 -3.64613,8.68125 -3.61719,3.64612 -8.68125,3.64612 h -12.38525 q -5.06406,0 -8.71019,-3.61718 -3.61718,-3.64613 -3.61718,-8.71019 v -18.52 q 0,-5.12194 3.64612,-8.73913 3.64613,-3.64612 8.68125,-3.64612 z m 0,12.38525 v 18.52 q 0,2.48862 1.79413,4.31169 1.82306,1.82306 4.3985,1.82306 2.57543,0 4.36956,-1.82306 1.82306,-1.82307 1.82306,-4.31169 v -18.52 q 0,-2.5465 -1.852,-4.36956 -1.82306,-1.82307 -4.34062,-1.82307 -2.5465,0 -4.36957,1.82307 -1.82306,1.82306 -1.82306,4.36956 z m 49.3674,-12.38525 h 12.38525 q 5.06407,0 8.68125,3.67506 3.64613,3.64613 3.64613,8.71019 v 18.52 q 0,5.00619 -3.64613,8.68125 -3.61718,3.64612 -8.68125,3.64612 h -12.38525 q -5.06406,0 -8.71019,-3.61718 -3.61718,-3.64613 -3.61718,-8.71019 v -18.52 q 0,-5.12194 3.64612,-8.73913 3.64613,-3.64612 8.68125,-3.64612 z m 0,12.38525 v 18.52 q 0,2.48862 1.79413,4.31169 1.82306,1.82306 4.3985,1.82306 2.57544,0 4.36956,-1.82306 1.82306,-1.82307 1.82306,-4.31169 v -18.52 q 0,-2.5465 -1.852,-4.36956 -1.82306,-1.82307 -4.34062,-1.82307 -2.5465,0 -4.36956,1.82307 -1.82307,1.82306 -1.82307,4.36956 z m 74.08003,30.84737 h -12.32738 v -6.19262 q -0.72343,6.19262 -6.19262,6.19262 h -6.19263 q -5.06406,0 -8.71018,-3.61718 -3.61719,-3.64613 -3.61719,-8.71019 v -18.52 q 0,-5.12194 3.64612,-8.73913 3.64613,-3.64612 8.68125,-3.64612 h 12.38525 v -12.32738 h 12.32738 z m -12.32738,-37.04 h -6.19262 q -2.5465,0 -4.36956,1.82307 -1.82307,1.82306 -1.82307,4.36956 v 18.52 q 0,2.48862 1.79413,4.31169 1.82306,1.82306 4.3985,1.82306 2.57544,0 4.36956,-1.82306 1.82306,-1.82307 1.82306,-4.31169 z"
   id="text1"
   aria-label="Fast Food" />
	<path
   d="m 447.5,364 h -24.927 c 0.824,-2.103 1.361,-4.349 1.542,-6.698 l 6.864,-89.227 c 0.16,-2.083 -0.556,-4.138 -1.975,-5.671 -0.239,-0.259 -0.5,-0.491 -0.77,-0.711 l 18.382,-43.03 c 0.781,-1.829 0.804,-3.894 0.063,-5.74 -0.741,-1.846 -2.185,-3.322 -4.014,-4.104 l -22.071,-9.428 c -1.893,-0.809 -3.933,-0.777 -5.707,-0.075 0.335,-1.93 -0.095,-3.916 -1.206,-5.532 -1.127,-1.639 -2.859,-2.763 -4.815,-3.125 l -23.6,-4.366 c -1.487,-0.274 -2.951,-0.086 -4.249,0.457 l -0.635,-9.079 c -0.289,-4.132 -3.878,-7.245 -8.005,-6.959 l -23.941,1.674 c -1.984,0.139 -3.833,1.06 -5.137,2.562 -1.305,1.501 -1.96,3.459 -1.822,5.443 l 1.047,14.976 -0.762,-2.636 c -1.15,-3.979 -5.308,-6.273 -9.288,-5.121 l -23.055,6.667 c -1.911,0.552 -3.524,1.841 -4.484,3.583 -0.96,1.742 -1.189,3.794 -0.637,5.705 L 320.615,260 H 319.5 c -2.089,0 -4.083,0.871 -5.503,2.404 -1.419,1.533 -2.135,3.588 -1.975,5.671 L 316.324,324 H 303.5 c -2.247,0 -4.375,1.007 -5.8,2.745 -1.424,1.738 -1.995,4.022 -1.554,6.226 L 302.352,364 H 266.319 C 269.284,359.198 271,353.546 271,347.5 v -1.734 c 9.29,-3.138 16,-11.93 16,-22.266 0,-10.336 -6.71,-19.128 -16,-22.266 v -20.179 c 4.765,-2.647 8,-7.728 8,-13.555 v -16 c 0,-10.024 -6.987,-24.303 -40.275,-35.399 C 215.315,208.297 184.338,204 151.5,204 118.662,204 87.685,208.297 64.275,216.101 30.987,227.197 24,241.475 24,251.5 v 16 c 0,5.827 3.235,10.908 8,13.555 v 20.179 c -9.29,3.138 -16,11.93 -16,22.266 0,10.336 6.71,19.128 16,22.266 v 1.734 c 0,6.046 1.716,11.698 4.681,16.5 H 15.5 C 6.953,364 0,370.953 0,379.5 v 16 c 0,8.547 6.953,15.5 15.5,15.5 h 432 c 8.547,0 15.5,-6.953 15.5,-15.5 v -16 C 463,370.953 456.047,364 447.5,364 Z M 404.321,256.449 c 0.137,-0.242 0.264,-0.492 0.376,-0.754 l 16.901,-39.562 8.277,3.536 -17.23,40.331 h -8.981 z M 384,234.359 c 0.059,-0.246 0.105,-0.497 0.139,-0.751 l 5.772,-31.199 8.85,1.637 L 388.409,260 h -9.152 z m -18.06,-48.158 3.213,45.957 -5.151,27.842 h -1.924 l -5.116,-73.171 z m 49.461,88.799 -6.243,81.152 c -0.338,4.401 -4.061,7.848 -8.475,7.848 h -24.035 l 6.206,-31.029 c 0.44,-2.203 -0.13,-4.488 -1.554,-6.226 -1.425,-1.738 -3.553,-2.745 -5.8,-2.745 h -44.131 l -3.77,-49 z M 329.435,204.104 345.598,260 h -9.369 l -15.44,-53.396 z M 366.351,339 l -4.92,24.599 c -0.046,0.232 -0.252,0.401 -0.49,0.401 h -42.883 c -0.237,0 -0.443,-0.169 -0.49,-0.402 L 312.648,339 Z M 39,251.5 c 0,-8.239 16.171,-16.553 30.019,-21.169 6.45,-2.15 13.551,-4.007 21.14,-5.57 0.013,0.014 0.024,0.029 0.038,0.042 l 24,24 c 1.464,1.464 3.384,2.197 5.303,2.197 1.919,0 3.839,-0.732 5.303,-2.197 2.929,-2.929 2.929,-7.678 0,-10.606 L 108.33,221.724 c 5.517,-0.727 11.21,-1.31 17.039,-1.749 l 36.828,36.828 c 1.464,1.464 3.384,2.197 5.303,2.197 1.919,0 3.839,-0.732 5.303,-2.197 2.929,-2.929 2.929,-7.678 0,-10.606 l -27.15,-27.15 c 1.94,-0.031 3.889,-0.047 5.846,-0.047 4.428,0 8.81,0.09 13.143,0.249 l 29.554,29.554 c 1.464,1.465 3.384,2.197 5.303,2.197 1.919,0 3.839,-0.732 5.303,-2.197 2.929,-2.929 2.929,-7.678 0,-10.606 l -17.328,-17.329 c 17.389,1.856 33.293,5.058 46.506,9.463 13.849,4.616 30.02,12.929 30.02,21.169 v 16 c 0,0.276 -0.224,0.5 -0.5,0.5 H 39.5 C 39.224,268 39,267.776 39,267.5 Z M 256,283 v 17 h -13.394 l -17,-17 z m -34.607,17 h -26.787 l -17,-17 h 26.787 z m -48,0 h -26.787 l -17,-17 h 26.787 z m -48,0 H 98.606 l -17,-17 h 26.787 z m -47.999,0 H 47 V 283 H 60.394 Z M 31,323.5 c 0,-4.687 3.813,-8.5 8.5,-8.5 h 224 c 4.687,0 8.5,3.813 8.5,8.5 0,4.687 -3.813,8.5 -8.5,8.5 H 39.5 C 34.813,332 31,328.187 31,323.5 Z M 256,347 v 0.5 c 0,9.098 -7.402,16.5 -16.5,16.5 H 63.5 C 54.402,364 47,356.598 47,347.5 V 347 Z m 192,48.5 c 0,0.276 -0.224,0.5 -0.5,0.5 h -432 c -0.276,0 -0.5,-0.224 -0.5,-0.5 v -16 c 0,-0.276 0.224,-0.5 0.5,-0.5 h 432 c 0.276,0 0.5,0.224 0.5,0.5 z"
   id="path1" />
</g>
</svg>
