<?xml version="1.0" encoding="UTF-8" standalone="no"?>
<!-- Uploaded to: SVG Repo, www.svgrepo.com, Generator: SVG Repo Mixer Tools -->

<svg
   fill="#000000"
   height="600"
   width="800"
   version="1.1"
   id="Layer_1"
   viewBox="0 0 463 347.25"
   xml:space="preserve"
   sodipodi:docname="header.svg"
   inkscape:version="1.4 (e7c3feb1, 2024-10-09)"
   xmlns:inkscape="http://www.inkscape.org/namespaces/inkscape"
   xmlns:sodipodi="http://sodipodi.sourceforge.net/DTD/sodipodi-0.dtd"
   xmlns="http://www.w3.org/2000/svg"
   xmlns:svg="http://www.w3.org/2000/svg"><defs
   id="defs6" /><sodipodi:namedview
   id="namedview6"
   pagecolor="#ffffff"
   bordercolor="#000000"
   borderopacity="0.25"
   inkscape:showpageshadow="2"
   inkscape:pageopacity="0.0"
   inkscape:pagecheckerboard="0"
   inkscape:deskcolor="#d1d1d1"
   inkscape:zoom="1.0124095"
   inkscape:cx="475.59807"
   inkscape:cy="334.84474"
   inkscape:window-width="1440"
   inkscape:window-height="847"
   inkscape:window-x="0"
   inkscape:window-y="25"
   inkscape:window-maximized="1"
   inkscape:current-layer="g6" />
<g
   id="g6"
   transform="translate(0,-170.69377)">
	
<g
   id="g5"
   transform="matrix(0.45214844,0,0,0.45214844,115.75,184.18569)">
	<g
   id="g4">
		<g
   id="g3">
			<path
   d="M 500.23,270.051 H 425.69 V 212.66 c 0,-6.501 -5.271,-11.77 -11.77,-11.77 h -48.1 l 27.688,-47.958 64.046,36.977 c 1.804,1.043 3.837,1.577 5.885,1.577 1.019,0 2.044,-0.133 3.046,-0.401 3.017,-0.809 5.586,-2.78 7.147,-5.484 l 20.598,-35.678 c 2.533,-4.388 1.975,-9.906 -1.389,-13.696 C 445.913,83.333 394.793,29.371 331.424,1.649 325.933,-0.753 319.511,1.355 316.514,6.548 l -38.253,66.256 c -3.251,5.63 -1.322,12.828 4.308,16.078 l 39.586,22.855 -69.394,120.189 -78.893,-116.953 -2.194,-16.818 c -0.237,-1.813 -0.892,-3.544 -1.914,-5.059 L 139.923,48.864 c -3.636,-5.39 -10.952,-6.81 -16.339,-3.176 l -53.66,36.193 c -2.588,1.746 -4.377,4.448 -4.973,7.512 -0.596,3.064 0.051,6.24 1.796,8.828 l 29.837,44.232 c 1.02,1.513 2.379,2.767 3.968,3.665 l 14.769,8.345 77.97,115.587 H 147.67 l -46.458,-95.485 c -2.845,-5.845 -9.89,-8.277 -15.733,-5.434 -5.845,2.845 -8.278,9.888 -5.434,15.733 l 41.447,85.186 H 91.712 L 73.156,227.845 c -2.618,-5.951 -9.566,-8.653 -15.512,-6.037 -5.951,2.616 -8.655,9.561 -6.038,15.512 l 14.39,32.732 H 11.77 c -6.5,0 -11.77,5.269 -11.77,11.77 v 64.736 c 0,6.501 5.271,11.77 11.77,11.77 h 20.598 v 141.241 c 0,6.501 5.271,11.77 11.77,11.77 h 423.724 c 6.499,0 11.77,-5.269 11.77,-11.77 V 358.328 h 20.598 c 6.5,0 11.77,-5.269 11.77,-11.77 v -64.736 c 0,-6.502 -5.271,-11.771 -11.77,-11.771 z M 402.15,224.43 v 45.621 H 325.891 L 352.229,224.43 Z M 304.533,74.381 331.515,27.647 c 52.385,25.827 96.917,71.78 138.08,117.868 l -10.464,18.122 z m -40.799,185.632 c 0.005,-0.008 0.007,-0.016 0.012,-0.025 l 78.799,-136.482 30.578,17.654 -74.412,128.89 H 257.937 Z M 133.285,139 c -1.02,-1.512 -2.379,-2.767 -3.968,-3.665 L 114.548,126.99 92.846,94.815 126.99,71.786 l 21.702,32.171 2.194,16.818 c 0.237,1.813 0.892,3.544 1.914,5.059 l 86.868,128.772 -8.917,15.444 h -9.063 z m 322.807,299.952 h -48.846 c -6.499,0 -11.77,5.269 -11.77,11.77 0,6.501 5.271,11.77 11.77,11.77 h 48.846 v 25.306 H 55.908 v -25.306 h 48.846 c 6.499,0 11.77,-5.269 11.77,-11.77 0,-6.501 -5.271,-11.77 -11.77,-11.77 H 55.908 v -80.625 h 135.356 v 41.195 c 0,6.501 5.271,11.77 11.77,11.77 h 105.931 c 6.499,0 11.77,-5.269 11.77,-11.77 v -41.195 h 135.356 v 80.625 z m -241.287,-51.2 v -29.425 h 82.391 v 29.425 z M 488.46,334.787 H 23.54 v -41.195 h 464.92 z"
   id="path1" />
			<path
   d="M 149.677,438.952 H 148.5 c -6.499,0 -11.77,5.269 -11.77,11.77 0,6.501 5.271,11.77 11.77,11.77 h 1.177 c 6.499,0 11.77,-5.269 11.77,-11.77 0,-6.501 -5.271,-11.77 -11.77,-11.77 z"
   id="path2" />
			<path
   d="m 362.323,462.492 h 1.177 c 6.499,0 11.77,-5.269 11.77,-11.77 0,-6.501 -5.271,-11.77 -11.77,-11.77 h -1.177 c -6.499,0 -11.77,5.269 -11.77,11.77 0,6.501 5.271,11.77 11.77,11.77 z"
   id="path3" />
		</g>
	</g>
</g><path
   style="font-size:61.7335px;font-family:Noteworthy;-inkscape-font-specification:Noteworthy;text-align:center;text-anchor:middle;stroke-width:0.57875"
   d="m 223.80713,459.73147 q 0,11.72937 -5.17018,21.99256 -6.40486,12.50103 -16.97672,12.50103 -3.85834,0 -7.25368,-2.70084 -1.31184,1.69768 -1.69768,1.69768 -0.84883,0 -1.69767,-0.54017 -1.08033,-3.00951 -1.08033,-11.57503 0,-6.48202 0.2315,-19.21456 0.2315,-12.8097 0.2315,-19.36888 0,-0.15434 -0.0772,-0.54017 -0.0772,-0.463 -0.0772,-0.6945 0,-1.69767 1.85201,-1.69767 0.926,0 2.00634,0.77166 1.08033,0.69451 1.08033,1.54334 0,0.926 -0.54016,2.31501 -0.463,1.31184 -0.463,2.16067 0,2.77801 0,3.00951 0.926,-0.54017 2.70084,-3.78118 1.77483,-3.24101 3.62684,-4.78434 2.85517,-2.46934 7.33085,-2.46934 8.33403,0 12.50104,6.86785 3.47251,5.63318 3.47251,14.50737 z m -4.55285,-0.38583 q 0,-7.02219 -2.00634,-11.6522 -2.70084,-6.48202 -8.79702,-6.48202 -4.32135,0 -8.56553,5.32451 -3.47251,4.39852 -4.86151,9.3372 -1.23467,4.47568 -1.23467,9.56869 v 15.97354 q 0,3.62685 1.92917,6.25052 2.16068,2.93234 5.71035,2.93234 6.17335,0 11.03487,-6.48202 4.08984,-5.32451 5.55601,-12.19236 1.23467,-6.09619 1.23467,-12.5782 z m 17.05392,-16.74522 q 0,0.0772 -0.6945,1.31184 -0.30867,0.61734 -0.61733,4.08985 -1.69768,15.81921 -1.69768,29.24624 0,11.03487 2.31501,14.43021 -1.46617,1.00317 -2.31501,1.00317 -3.31817,0 -4.01267,-5.40168 -0.61734,-4.78435 -0.61734,-6.79069 l 0.54017,-36.5771 q 0,-1.08034 1.46617,-2.31501 1.46617,-1.23467 2.54651,-1.23467 0.6945,0 1.852,0.84884 1.23467,0.77167 1.23467,1.389 z m 39.04645,0 q -0.77167,1.38901 -2.85517,3.85835 -2.08351,2.39217 -2.77801,3.85834 -5.63318,11.03487 -9.80019,21.68389 -6.09619,15.58771 -5.47885,22.1469 -1.38901,1.00317 -2.62368,1.00317 -2.46934,0 -3.93551,-4.32135 0.463,-0.38583 1.46617,-1.389 1.08034,-1.08034 3.31818,-7.40802 1.389,-4.24418 2.85517,-8.48836 -4.93868,-3.85834 -8.56552,-12.1152 -6.01902,-13.81287 -6.01902,-18.75155 0,-3.16384 2.46934,-3.16384 1.62051,0 2.62368,1.69767 0.77167,1.54334 0.77167,3.24101 0,0.54017 -0.38584,1.389 -0.30866,0.84884 -0.30866,1.31184 0,3.54968 3.85834,12.1152 4.24418,9.26002 7.09935,9.18286 1.31184,-1.38901 7.33086,-15.43338 5.32451,-12.5782 7.94818,-12.5782 2.77801,0 3.00951,2.16067 z"
   id="text2"
   aria-label="DIY" /></g>
</svg>
