<?xml version="1.0" encoding="UTF-8" standalone="no"?>
<!-- Uploaded to: SVG Repo, www.svgrepo.com, Generator: SVG Repo Mixer Tools -->

<svg
   fill="#000000"
   height="600"
   width="800"
   version="1.1"
   id="Layer_1"
   viewBox="0 0 463 347.25"
   xml:space="preserve"
   sodipodi:docname="header.svg"
   inkscape:version="1.4 (e7c3feb1, 2024-10-09)"
   xmlns:inkscape="http://www.inkscape.org/namespaces/inkscape"
   xmlns:sodipodi="http://sodipodi.sourceforge.net/DTD/sodipodi-0.dtd"
   xmlns="http://www.w3.org/2000/svg"
   xmlns:svg="http://www.w3.org/2000/svg"><defs
   id="defs6" /><sodipodi:namedview
   id="namedview6"
   pagecolor="#ffffff"
   bordercolor="#000000"
   borderopacity="0.25"
   inkscape:showpageshadow="2"
   inkscape:pageopacity="0.0"
   inkscape:pagecheckerboard="0"
   inkscape:deskcolor="#d1d1d1"
   inkscape:zoom="0.60378098"
   inkscape:cx="52.171236"
   inkscape:cy="409.08874"
   inkscape:window-width="1440"
   inkscape:window-height="847"
   inkscape:window-x="0"
   inkscape:window-y="25"
   inkscape:window-maximized="1"
   inkscape:current-layer="text1" />
<g
   id="g6"
   transform="translate(0,-170.69377)">
	
<g
   id="text1"
   style="font-size:30.8667px;font-family:Courier;-inkscape-font-specification:Courier;stroke-width:0.57875"
   aria-label="  H E N R I ' S&#10;  _   _   _____&#10; | | | | |  ___|&#10; | | | | | |&#10; | |_| | | | __&#10; |  _  | | | | |&#10; | | | | | |_| |&#10; |_| |_| |_____|"><path
     style="font-size:34.725px;text-align:center;text-anchor:middle;stroke-width:0.334952"
     d="m 133.63247,198.24086 q 0.54257,0.0509 1.0682,0.0848 0.54257,0.017 1.05124,0.017 4.17107,0 6.10401,-1.86511 1.94989,-1.86511 1.94989,-5.88358 0,-4.03543 -1.94989,-5.86663 -1.94989,-1.84816 -6.23965,-1.84816 -0.79691,0 -1.2208,0.017 -0.40694,0.017 -0.763,0.0678 z m 0,2.39073 h -2.67898 -0.763 q -0.62736,0 -0.94952,-0.3052 -0.3052,-0.3052 -0.3052,-0.9156 0,-0.66127 0.35607,-0.9156 0.37302,-0.25433 1.39036,-0.25433 h 0.3052 v -15.27697 h -0.27129 q -1.01734,0 -1.40731,-0.27129 -0.37303,-0.27129 -0.37303,-0.94951 0,-0.62735 0.3052,-0.9156 0.32216,-0.3052 0.98343,-0.3052 h 0.72909 2.67898 3.74718 q 4.22193,0 6.73136,2.72985 2.50942,2.71289 2.50942,7.34176 0,2.25509 -0.72909,4.18802 -0.71213,1.93294 -2.08553,3.39111 -1.27167,1.32254 -3.10287,1.93294 -1.81425,0.59344 -4.67974,0.59344 -0.33911,0 -1.15298,-0.0339 -0.79691,-0.0339 -1.23775,-0.0339 z m 23.33085,-20.55014 q 0,-1.8312 0.32216,-2.30596 0.33911,-0.47476 1.42427,-0.47476 1.05124,0 1.39035,0.40694 0.33912,0.38998 0.33912,1.88206 0,1.45818 -0.32216,1.81425 -0.3052,0.33911 -1.40731,0.33911 -1.08516,0 -1.42427,-0.32215 -0.32216,-0.32216 -0.32216,-1.33949 z m 3.13678,18.15941 h 5.44274 q 0.66127,0 0.96647,0.28824 0.32215,0.27129 0.32215,0.88169 0,0.69518 -0.3052,0.96647 -0.28824,0.25433 -1.08515,0.25433 h -13.15752 q -0.67822,0 -1.01734,-0.3052 -0.33911,-0.3052 -0.33911,-0.9156 0,-0.59344 0.35607,-0.88169 0.35607,-0.28824 1.0682,-0.28824 h 5.17145 v -10.86852 h -3.30634 q -0.69518,0 -1.0682,-0.3052 -0.35606,-0.32216 -0.35606,-0.9156 0,-0.59345 0.33911,-0.88169 0.33911,-0.3052 1.01733,-0.3052 h 4.96798 q 0.4578,0 0.71213,0.18651 0.27129,0.18651 0.27129,0.50867 z m 11.8689,1.16993 v -3.01809 q 0,-0.74604 0.27129,-1.0682 0.28824,-0.32216 0.9156,-0.32216 0.69518,0 1.10211,0.94952 0.27129,0.57648 0.49171,0.86473 0.71214,0.9156 2.10249,1.47513 1.39036,0.54258 3.06896,0.54258 1.79729,0 2.88245,-0.72909 1.08515,-0.72909 1.08515,-1.91598 0,-1.20384 -0.88169,-1.71251 -0.86473,-0.50867 -2.98418,-0.50867 h -0.93255 q -3.45894,0 -5.27318,-1.20384 -1.81425,-1.20385 -1.81425,-3.49285 0,-2.23813 1.76338,-3.47589 1.78033,-1.23775 4.98494,-1.23775 1.30557,0 2.66202,0.37302 1.35645,0.35606 1.42427,0.35606 0.18651,0 0.71213,-0.32215 0.52562,-0.33911 1.03429,-0.33911 0.57649,0 0.84778,0.42389 0.28824,0.42389 0.28824,1.27166 v 1.98381 q 0,0.89864 -0.27129,1.30557 -0.27128,0.38998 -0.86473,0.38998 -0.50867,0 -1.25471,-0.86473 -0.52562,-0.59345 -0.86473,-0.89865 -0.89865,-0.83082 -1.91598,-1.18689 -1.01734,-0.37302 -2.39074,-0.37302 -1.59382,0 -2.57724,0.71214 -0.96647,0.69517 -0.96647,1.78033 0,1.0682 1.00038,1.526 1.00038,0.4578 4.30671,0.52562 3.52676,0.0848 5.15449,1.23776 1.62774,1.13602 1.62774,3.52676 0,2.289 -1.79729,3.6624 -1.79729,1.3734 -4.8493,1.3734 -0.96646,0 -2.15335,-0.18651 -1.18689,-0.16956 -2.98418,-0.59345 -0.59345,0.38998 -1.01734,0.57649 -0.42388,0.20347 -0.71213,0.20347 -0.59344,0 -0.9156,-0.40693 -0.3052,-0.42389 -0.3052,-1.20385 z m 33.33464,-13.42881 v -0.0678 q 0,-0.55953 0.32216,-0.81387 0.32215,-0.27129 1.00038,-0.27129 0.69517,0 0.94951,0.40694 0.27129,0.40693 0.27129,1.6786 v 3.15373 q 0,0.62736 -0.32216,0.94952 -0.32215,0.3052 -0.96647,0.3052 -0.4578,0 -0.79691,-0.25434 -0.32215,-0.27129 -0.79691,-1.10211 -0.81387,-1.3734 -1.9838,-2.06858 -1.15298,-0.71213 -2.66202,-0.71213 -2.64507,0 -4.30672,1.55991 -1.64469,1.55991 -1.64469,4.03542 0,2.52638 1.57687,4.13716 1.59382,1.59383 4.08629,1.59383 1.13602,0 2.15336,-0.3052 1.03429,-0.32216 1.94989,-0.94952 0.32215,-0.20346 0.86473,-0.62735 1.10211,-0.89865 1.72947,-0.89865 0.52562,0 0.84778,0.33911 0.33911,0.32216 0.33911,0.84778 0,1.33949 -2.54334,2.7468 -2.52637,1.39036 -5.37491,1.39036 -3.67936,0 -6.13791,-2.35682 -2.44161,-2.35683 -2.44161,-5.88358 0,-3.52676 2.44161,-5.88359 2.4416,-2.37377 6.104,-2.37377 1.28862,0 2.57725,0.35606 1.30557,0.33911 2.76375,1.0682 z m 15.73477,12.69972 q 2.61115,0 4.2728,-1.64469 1.6786,-1.66164 1.6786,-4.22193 0,-2.56029 -1.6786,-4.22194 -1.6786,-1.6786 -4.2728,-1.6786 -2.5942,0 -4.27281,1.6786 -1.66164,1.66165 -1.66164,4.22194 0,2.57724 1.66164,4.22193 1.66165,1.64469 4.27281,1.64469 z m 8.90167,-5.86662 q 0,3.62849 -2.47551,5.93444 -2.47552,2.30596 -6.42616,2.30596 -3.93369,0 -6.40921,-2.30596 -2.47551,-2.30595 -2.47551,-5.93444 0,-3.6285 2.47551,-5.9175 2.47552,-2.30595 6.40921,-2.30595 3.93369,0 6.4092,2.30595 2.49247,2.30596 2.49247,5.9175 z m 7.71479,1.55991 q 0,2.1364 0.89864,3.11982 0.89865,0.98342 2.84854,0.98342 1.84815,0 3.15373,-1.16993 1.32254,-1.16993 1.32254,-2.93331 v -7.00265 h -2.32292 q -0.66126,0 -0.96646,-0.27129 -0.28825,-0.28824 -0.28825,-0.88169 0,-0.64431 0.32216,-0.94951 0.32215,-0.3052 1.03429,-0.3052 h 3.61153 q 0.64431,0 0.89865,0.28824 0.27129,0.27129 0.27129,1.35645 v 11.63152 h 0.77995 q 0.83082,0 1.18689,0.27129 0.37302,0.27129 0.37302,0.89864 0,0.6104 -0.35606,0.9156 -0.33911,0.3052 -1.00038,0.3052 h -2.57725 q -0.4578,0 -0.71213,-0.18651 -0.25433,-0.18651 -0.25433,-0.50867 v -1.15297 q -1.62774,1.25471 -2.79767,1.72946 -1.15298,0.4578 -2.4416,0.4578 -2.79767,0 -4.20498,-1.47513 -1.39036,-1.49209 -1.39036,-4.49323 v -7.63 h -0.35607 q -1.15298,0 -1.57687,-0.27129 -0.42388,-0.27129 -0.42388,-0.94951 0,-0.59345 0.32215,-0.88169 0.33911,-0.3052 1.03429,-0.3052 h 2.56029 q 0.59345,0 0.81387,0.23738 0.23738,0.23737 0.23738,1.05124 z m 18.75285,3.86587 v -10.86852 h -0.32216 q -1.15298,0 -1.59382,-0.27129 -0.42389,-0.27129 -0.42389,-0.94951 0,-0.62736 0.35607,-0.89865 0.35606,-0.28824 1.15297,-0.28824 h 0.79692 1.62773 q 0.4578,0 0.71213,0.18651 0.25434,0.18651 0.25434,0.50867 v 1.15298 q 1.23775,-1.15298 2.4416,-1.69556 1.2208,-0.55953 2.52638,-0.55953 2.56029,0 4.01847,1.59382 1.47513,1.59382 1.47513,4.40845 v 7.68087 h 0.79691 q 0.84778,0 1.2208,0.28824 0.37303,0.27129 0.37303,0.88169 0,0.66127 -0.40694,0.94951 -0.38997,0.27129 -1.40731,0.27129 h -3.74718 q -1.08515,0 -1.39036,-0.25433 -0.3052,-0.25434 -0.3052,-0.96647 0,-0.66127 0.35607,-0.9156 0.35607,-0.25433 1.33949,-0.25433 h 0.59345 v -7.05352 q 0,-1.9838 -0.89865,-3.01809 -0.89864,-1.05124 -2.61116,-1.05124 -1.72946,0 -3.052,1.16993 -1.32253,1.16993 -1.32253,2.8994 v 7.05352 h 0.59344 q 1.01734,0 1.3734,0.25433 0.35607,0.25433 0.35607,0.9156 0,0.71213 -0.3052,0.96647 -0.3052,0.25433 -1.49209,0.25433 h -3.08591 -0.9156 q -0.69518,0 -1.05125,-0.28824 -0.33911,-0.3052 -0.33911,-0.93256 0,-0.67822 0.38998,-0.9156 0.40693,-0.25433 1.55991,-0.25433 z m 31.77472,-12.3267 q 0.83083,0 1.20385,0.28825 0.38998,0.28824 0.38998,0.9156 0,0.59344 -0.35607,0.89864 -0.35607,0.28825 -1.0682,0.28825 h -6.867 v 5.66315 q 0,2.78072 0.71213,3.66241 0.72909,0.88169 2.47551,0.88169 1.54296,0 3.69632,-0.89865 2.15335,-0.89864 2.66202,-0.89864 0.47475,0 0.79691,0.33911 0.33911,0.33911 0.33911,0.83082 0,0.55953 -0.42389,0.98342 -0.40693,0.40694 -1.40731,0.79691 -1.66164,0.66127 -3.00113,0.96647 -1.32254,0.3052 -2.49247,0.3052 -1.9838,0 -3.34025,-0.62735 -1.33949,-0.64432 -2.00076,-1.89903 -0.33911,-0.59344 -0.49171,-1.40731 -0.13564,-0.81387 -0.13564,-2.50942 v -0.52563 -5.66315 h -2.88245 q -0.71213,0 -1.03429,-0.27129 -0.32215,-0.28825 -0.32215,-0.9156 0,-0.69518 0.44084,-0.94952 0.44085,-0.25433 1.88207,-0.25433 h 1.91598 v -3.47589 -0.89865 q 0,-0.72908 0.3052,-1.0682 0.32215,-0.35606 0.98342,-0.35606 0.74605,0 1.03429,0.42389 0.28825,0.42389 0.28825,1.93293 v 3.44198 z m 10.47855,7.63001 q 0.13564,2.4416 1.64469,3.78109 1.526,1.32253 4.15411,1.32253 1.9838,0 4.32367,-1.05124 2.33987,-1.06821 2.83158,-1.06821 0.50867,0 0.84778,0.32216 0.33911,0.32216 0.33911,0.79691 0,0.49171 -0.35607,0.89865 -0.35606,0.40693 -1.13602,0.79691 -1.69556,0.83082 -3.5098,1.27167 -1.79729,0.44084 -3.57763,0.44084 -3.86587,0 -6.18878,-2.22118 -2.32291,-2.23813 -2.32291,-5.91749 0,-3.74718 2.45856,-6.07009 2.45855,-2.32292 6.4092,-2.32292 3.57762,0 5.93445,2.17032 2.35682,2.17031 2.35682,5.25622 0,0.94951 -0.40693,1.27167 -0.38998,0.32216 -2.15336,0.32216 h -0.25433 z m 0.0848,-2.22118 h 11.03807 q -0.25433,-2.01772 -1.69556,-3.23852 -1.42427,-1.23775 -3.5098,-1.23775 -2.25509,0 -3.79805,1.18689 -1.54295,1.18689 -2.03466,3.28938 z m 24.82295,6.91787 h 5.62925 q 0.66126,0 0.96646,0.28824 0.32216,0.27129 0.32216,0.88169 0,0.69518 -0.3052,0.96647 -0.28825,0.25433 -1.08516,0.25433 h -11.08894 q -0.66127,0 -1.00038,-0.3052 -0.33911,-0.3052 -0.33911,-0.9156 0,-0.59344 0.33911,-0.88169 0.35607,-0.28824 1.08516,-0.28824 h 2.95027 v -10.86852 h -1.15298 q -1.64469,0 -2.05162,-0.25433 -0.40694,-0.27129 -0.40694,-0.96647 0,-0.59345 0.32216,-0.88169 0.33911,-0.3052 1.01733,-0.3052 h 3.86587 q 0.4578,0 0.69518,0.18651 0.23738,0.16956 0.23738,0.50867 v 2.88244 q 1.61078,-2.01771 3.3572,-3.00113 1.74642,-0.98342 3.76414,-0.98342 1.50904,0 2.4416,0.6104 0.93255,0.6104 0.93255,1.57686 0,0.62736 -0.47475,1.11907 -0.4578,0.47476 -1.01734,0.47476 -0.38998,0 -1.32253,-0.50867 -0.9156,-0.52562 -1.64469,-0.52562 -1.32254,0 -2.79767,0.94951 -1.45818,0.93255 -3.23851,2.96722 z"
     id="text2"
     aria-label="Discounter" /><g
     id="text2-9"
     style="font-size:30.8667px;font-family:Luminari;-inkscape-font-specification:Luminari;stroke-width:0.334952"
     aria-label=" ________&#10;|  ____  \ &#10;| |    | |&#10;| |    | |&#10;| |    | |&#10;| |    | |&#10;| |____| |&#10;|________/"><path
       style="font-family:Courier;-inkscape-font-specification:Courier"
       d="m 164.62535,224.80632 v 1.77845 h -19.06559 v -1.77845 z m 18.52302,0 v 1.77845 h -19.06559 v -1.77845 z m 18.52301,0 v 1.77845 h -19.06559 v -1.77845 z m 18.52302,0 v 1.77845 h -19.0656 v -1.77845 z m 18.52301,0 v 1.77845 h -19.0656 v -1.77845 z m 18.52301,0 v 1.77845 h -19.06559 v -1.77845 z m 18.52302,0 v 1.77845 h -19.06559 v -1.77845 z m 18.52301,0 v 1.77845 h -19.06559 v -1.77845 z"
       id="path10" /><path
       style="font-family:Courier;-inkscape-font-specification:Courier"
       d="m 135.64264,234.64057 h 1.82367 v 31.45446 h -1.82367 z m 66.02874,29.35951 v 1.77845 h -19.06559 v -1.77845 z m 18.52302,0 v 1.77845 h -19.0656 v -1.77845 z m 18.52301,0 v 1.77845 h -19.0656 v -1.77845 z m 18.52301,0 v 1.77845 h -19.06559 v -1.77845 z m 49.4349,-5.09421 -9.48005,-20.40696 q -0.0754,-0.16579 -0.12057,-0.30144 -0.0301,-0.13564 -0.0301,-0.25621 0,-0.42201 0.33158,-0.72344 0.33158,-0.30143 0.7988,-0.30143 0.37679,0 0.64807,0.28636 0.28637,0.27129 0.64808,1.05501 l 9.41976,20.27132 q 0.0603,0.15072 0.0904,0.30143 0.0301,0.15072 0.0301,0.31651 0,0.43707 -0.30144,0.73851 -0.28636,0.3165 -0.70836,0.3165 -0.40694,0 -0.6933,-0.27129 -0.28636,-0.25622 -0.633,-1.02487 z"
       id="path11" /><path
       style="font-family:Courier;-inkscape-font-specification:Courier"
       d="m 135.64264,273.83433 h 1.82367 v 31.45446 h -1.82367 z m 37.04603,0 h 1.82366 v 31.45446 h -1.82366 z m 92.61507,0 h 1.82367 v 31.45446 h -1.82367 z m 37.04602,0 h 1.82367 v 31.45446 h -1.82367 z"
       id="path12" /><path
       style="font-family:Courier;-inkscape-font-specification:Courier"
       d="m 135.64264,313.0281 h 1.82367 v 31.45446 h -1.82367 z m 37.04603,0 h 1.82366 v 31.45446 h -1.82366 z m 92.61507,0 h 1.82367 v 31.45446 h -1.82367 z m 37.04602,0 h 1.82367 v 31.45446 h -1.82367 z"
       id="path13" /><path
       style="font-family:Courier;-inkscape-font-specification:Courier"
       d="m 135.64264,352.22186 h 1.82367 v 31.45446 h -1.82367 z m 37.04603,0 h 1.82366 v 31.45446 h -1.82366 z m 92.61507,0 h 1.82367 v 31.45446 h -1.82367 z m 37.04602,0 h 1.82367 v 31.45446 h -1.82367 z"
       id="path14" /><path
       style="font-family:Courier;-inkscape-font-specification:Courier"
       d="m 135.64264,391.41562 h 1.82367 v 31.45446 h -1.82367 z m 37.04603,0 h 1.82366 v 31.45446 h -1.82366 z m 92.61507,0 h 1.82367 v 31.45446 h -1.82367 z m 37.04602,0 h 1.82367 v 31.45446 h -1.82367 z"
       id="path15" /><path
       style="font-family:Courier;-inkscape-font-specification:Courier"
       d="m 135.64264,430.60938 h 1.82367 v 31.45446 h -1.82367 z m 37.04603,0 h 1.82366 v 31.45446 h -1.82366 z m 28.98271,29.35951 v 1.77845 h -19.06559 v -1.77845 z m 18.52302,0 v 1.77845 h -19.0656 v -1.77845 z m 18.52301,0 v 1.77845 h -19.0656 v -1.77845 z m 18.52301,0 v 1.77845 h -19.06559 v -1.77845 z m 8.06332,-29.35951 h 1.82367 v 31.45446 h -1.82367 z m 37.04602,0 h 1.82367 v 31.45446 h -1.82367 z"
       id="path16" /><path
       style="font-family:Courier;-inkscape-font-specification:Courier"
       d="m 135.64264,469.80314 h 1.82367 v 31.45446 h -1.82367 z m 28.98271,29.35951 v 1.77845 h -19.06559 v -1.77845 z m 18.52302,0 v 1.77845 h -19.06559 v -1.77845 z m 18.52301,0 v 1.77845 h -19.06559 v -1.77845 z m 18.52302,0 v 1.77845 h -19.0656 v -1.77845 z m 18.52301,0 v 1.77845 h -19.0656 v -1.77845 z m 18.52301,0 v 1.77845 h -19.06559 v -1.77845 z m 18.52302,0 v 1.77845 h -19.06559 v -1.77845 z m 18.52301,0 v 1.77845 h -19.06559 v -1.77845 z m 5.59157,-5.09421 q -0.33158,0.75358 -0.63301,1.02487 -0.28636,0.27129 -0.69329,0.27129 -0.42201,0 -0.73851,-0.3165 -0.31651,-0.30143 -0.31651,-0.73851 0,-0.12057 0.0452,-0.28636 0.0452,-0.15072 0.12057,-0.33158 l 9.40469,-20.27132 q 0.37679,-0.78372 0.66315,-1.05501 0.28636,-0.28636 0.69329,-0.28636 0.45215,0 0.76866,0.30143 0.3165,0.30143 0.3165,0.72344 0,0.12057 -0.0452,0.27129 -0.0301,0.15071 -0.1055,0.28636 z"
       id="path17" /></g></g></g>
</svg>
